<svg width="42" height="45" viewBox="0 0 42 45" fill="none" xmlns="http://www.w3.org/2000/svg">
<g filter="url(#filter0_dd_7520_157)">
<path d="M37.3167 28.4333L28.0667 19.1833L30.6833 16.5667L24.4333 10.3167L21.8167 12.9333L12.5667 3.68335L4.68335 11.5667L13.9333 20.8167L6.00002 28.75V35H12.25L20.1833 27.0667L29.4333 36.3167L37.3167 28.4333ZM16.3 18.45L9.40002 11.5667L12.5667 8.40002L14.6833 10.5167L12.7 12.5L15.05 14.85L17.0333 12.8667L19.45 15.2833L16.3 18.45ZM22.55 24.7L25.7167 21.5333L28.1334 23.95L26.15 25.9333L28.5 28.2833L30.4834 26.3L32.6 28.4167L29.4333 31.5834L22.55 24.7ZM26.2217 8.53835L30.4517 4.30668L36.6983 10.5533L32.4684 14.785L26.2217 8.53835Z" fill="#F9995D"/>
</g>
<defs>
<filter id="filter0_dd_7520_157" x="-3" y="0" width="48" height="48" filterUnits="userSpaceOnUse" color-interpolation-filters="sRGB">
<feFlood flood-opacity="0" result="BackgroundImageFix"/>
<feColorMatrix in="SourceAlpha" type="matrix" values="0 0 0 0 0 0 0 0 0 0 0 0 0 0 0 0 0 0 127 0" result="hardAlpha"/>
<feOffset dy="4"/>
<feGaussianBlur stdDeviation="2"/>
<feComposite in2="hardAlpha" operator="out"/>
<feColorMatrix type="matrix" values="0 0 0 0 0 0 0 0 0 0 0 0 0 0 0 0 0 0 0.25 0"/>
<feBlend mode="normal" in2="BackgroundImageFix" result="effect1_dropShadow_7520_157"/>
<feColorMatrix in="SourceAlpha" type="matrix" values="0 0 0 0 0 0 0 0 0 0 0 0 0 0 0 0 0 0 127 0" result="hardAlpha"/>
<feOffset dy="4"/>
<feGaussianBlur stdDeviation="2"/>
<feComposite in2="hardAlpha" operator="out"/>
<feColorMatrix type="matrix" values="0 0 0 0 0 0 0 0 0 0 0 0 0 0 0 0 0 0 0.25 0"/>
<feBlend mode="normal" in2="effect1_dropShadow_7520_157" result="effect2_dropShadow_7520_157"/>
<feBlend mode="normal" in="SourceGraphic" in2="effect2_dropShadow_7520_157" result="shape"/>
</filter>
</defs>
</svg>
